<?xml version="1.0" encoding="utf-8"?>
<!-- Generator: Adobe Illustrator 16.2.1, SVG Export Plug-In . SVG Version: 6.00 Build 0)  -->
<!DOCTYPE svg PUBLIC "-//W3C//DTD SVG 1.1//EN" "http://www.w3.org/Graphics/SVG/1.1/DTD/svg11.dtd">
<svg version="1.1" xmlns="http://www.w3.org/2000/svg" xmlns:xlink="http://www.w3.org/1999/xlink" x="0px" y="0px" width="512px"
	 height="512px" viewBox="0 0 512 512" style="enable-background:new 0 0 512 512;" xml:space="preserve">
<style type="text/css">
<![CDATA[
	.st0{fill:#4E8EF7;}
	.st1{fill:url(#SVGID_1_);}
	.st2{display:inline;}
	.st3{fill:#30393A;}
	.st4{fill:#3D4444;}
	.st5{display:none;}
]]>
</style>
<g id="Layer_1" class="st5">
	<g class="st2">
		<path class="st0" d="M434.6,121.3c4.5-5.4,7.2-12.4,7.2-20c0-17.3-14-31.3-31.3-31.3c-7.6,0-14.5,2.7-20,7.2
			C353,48.8,306.3,32,255.8,32c-123.5,0-224,100.5-224,224c0,123.5,100.5,224,224,224s224-100.5,224-224
			C479.8,205.4,463,158.8,434.6,121.3z M255.8,471c-118.6,0-215-96.5-215-215c0-118.6,96.5-215,215-215c48.2,0,92.8,16,128.7,42.8
			c-3.4,5-5.3,11-5.3,17.5c0,17.3,14,31.3,31.3,31.3c6.5,0,12.5-2,17.5-5.3c26.9,35.9,42.8,80.5,42.8,128.7
			C470.8,374.5,374.3,471,255.8,471z"/>
		<ellipse class="st0" cx="255.8" cy="256" rx="96.2" ry="96.1"/>
	</g>
</g>
<g id="Layer_2">
	<g>
		<g>
			<linearGradient id="SVGID_1_" gradientUnits="userSpaceOnUse" x1="255.4995" y1="0" x2="255.4995" y2="512.0005">
				<stop  offset="0" style="stop-color:#505C5D"/>
				<stop  offset="1" style="stop-color:#1C2425"/>
			</linearGradient>
			<path class="st1" d="M377,476.8c0,18.9-15.9,35.2-34.8,35.2H169.1c-18.9,0-35.1-16.3-35.1-35.2v-442C134,15.9,150.2,0,169.1,0
				h173.2C361.1,0,377,15.9,377,34.8V476.8z"/>
			<path class="st3" d="M373,473.7c0,18.9-14.9,34.3-33.8,34.3H172.1c-18.9,0-34.1-15.4-34.1-34.3v-437C138,17.9,153.2,3,172.1,3
				h167.1C358.1,3,373,17.9,373,36.8V473.7z"/>
		</g>
		<g>
			<circle class="st4" cx="255.6" cy="26.8" r="4.5"/>
			<path class="st4" d="M278,44.5c0,1.4-1.1,2.5-2.5,2.5h-40c-1.4,0-2.5-1.1-2.5-2.5l0,0c0-1.4,1.1-2.5,2.5-2.5h40
				C276.9,42,278,43.1,278,44.5L278,44.5z"/>
		</g>
		<circle class="st4" cx="222" cy="44.5" r="2.5"/>
		<path class="st4" d="M256,456.5c9.8,0,17.8,8,17.8,17.8s-8,17.8-17.8,17.8s-17.8-8-17.8-17.8S246.2,456.5,256,456.5 M256,452.5
			c-12,0-21.8,9.7-21.8,21.8S244,496,256,496s21.8-9.7,21.8-21.8S268,452.5,256,452.5L256,452.5z"/>
	</g>
</g>
</svg>
