<?xml version="1.0" encoding="utf-8"?>
<!-- Generator: Adobe Illustrator 17.1.0, SVG Export Plug-In . SVG Version: 6.00 Build 0)  -->
<!DOCTYPE svg PUBLIC "-//W3C//DTD SVG 1.1//EN" "http://www.w3.org/Graphics/SVG/1.1/DTD/svg11.dtd">
<svg version="1.1" id="Layer_1" xmlns="http://www.w3.org/2000/svg" xmlns:xlink="http://www.w3.org/1999/xlink" x="0px" y="0px"
	 viewBox="0 0 173.7 23.3" enable-background="new 0 0 173.7 23.3" xml:space="preserve">
<g>
	<path fill="#FFFFFF" d="M1.7,23.3c-0.2,0-0.4-0.1-0.6-0.2c-0.4-0.3-0.5-1-0.2-1.4l7.4-10.1L0.9,1.8C0.5,1.3,0.6,0.7,1.1,0.4
		C1.5,0,2.1,0.1,2.5,0.6l8.3,11.1L2.5,22.9C2.3,23.2,2,23.3,1.7,23.3z"/>
</g>
<g>
	<g>
		<path fill="#FFFFFF" d="M24,17.3c0.2,0.3,0.4,0.5,0.7,0.7s0.6,0.3,1,0.4c0.4,0.1,0.8,0.1,1.2,0.1c0.3,0,0.6,0,1-0.1
			c0.3,0,0.7-0.1,0.9-0.3c0.3-0.1,0.5-0.3,0.7-0.5s0.3-0.5,0.3-0.9c0-0.5-0.2-0.9-0.6-1.2c-0.4-0.3-0.9-0.5-1.5-0.6
			c-0.6-0.2-1.2-0.3-1.9-0.4c-0.7-0.1-1.3-0.3-1.9-0.6c-0.6-0.2-1.1-0.6-1.5-1c-0.4-0.4-0.6-1-0.6-1.8c0-0.6,0.1-1.1,0.4-1.6
			C22.6,9,23,8.7,23.4,8.4c0.4-0.3,0.9-0.5,1.4-0.6c0.5-0.1,1.1-0.2,1.6-0.2c0.7,0,1.3,0.1,1.9,0.2c0.6,0.1,1.1,0.3,1.5,0.6
			c0.4,0.3,0.8,0.7,1.1,1.2c0.3,0.5,0.4,1.1,0.5,1.8h-2c0-0.4-0.1-0.7-0.3-1c-0.2-0.3-0.4-0.5-0.7-0.6c-0.3-0.2-0.6-0.3-0.9-0.3
			s-0.6-0.1-1-0.1c-0.3,0-0.6,0-0.9,0.1s-0.6,0.1-0.8,0.2c-0.2,0.1-0.5,0.3-0.6,0.5c-0.2,0.2-0.2,0.4-0.2,0.8c0,0.3,0.1,0.6,0.4,0.9
			c0.2,0.2,0.5,0.4,0.9,0.6c0.4,0.1,0.8,0.3,1.3,0.4c0.5,0.1,0.9,0.2,1.4,0.3c0.5,0.1,1,0.2,1.5,0.4c0.5,0.2,0.9,0.4,1.3,0.6
			c0.4,0.3,0.7,0.6,0.9,1c0.2,0.4,0.3,0.9,0.3,1.4c0,0.7-0.2,1.3-0.5,1.8c-0.3,0.5-0.7,0.9-1.2,1.2s-1,0.5-1.7,0.6
			c-0.6,0.1-1.2,0.2-1.8,0.2c-0.7,0-1.3-0.1-1.9-0.2c-0.6-0.1-1.1-0.4-1.6-0.7c-0.5-0.3-0.8-0.7-1.1-1.3c-0.3-0.5-0.4-1.2-0.5-1.9h2
			C23.7,16.6,23.8,17,24,17.3z"/>
		<path fill="#FFFFFF" d="M26.8,20.3c-0.7,0-1.3-0.1-1.9-0.2c-0.6-0.1-1.2-0.4-1.6-0.7c-0.5-0.3-0.9-0.8-1.1-1.3
			c-0.3-0.5-0.4-1.2-0.5-1.9l0-0.1h2.1l0,0c0,0.4,0.1,0.8,0.3,1.1c0.2,0.3,0.4,0.5,0.7,0.7c0.3,0.2,0.6,0.3,1,0.4
			c0.4,0.1,0.8,0.1,1.2,0.1c0.3,0,0.6,0,1-0.1c0.3,0,0.7-0.1,0.9-0.3c0.3-0.1,0.5-0.3,0.7-0.5c0.2-0.2,0.3-0.5,0.3-0.9
			c0-0.5-0.2-0.9-0.6-1.1c-0.4-0.3-0.9-0.5-1.4-0.6c-0.6-0.2-1.2-0.3-1.9-0.4c-0.7-0.1-1.3-0.3-1.9-0.6c-0.6-0.2-1.1-0.6-1.5-1
			c-0.4-0.4-0.6-1.1-0.6-1.9c0-0.6,0.1-1.1,0.4-1.6C22.6,9,23,8.6,23.4,8.4c0.4-0.3,0.9-0.5,1.5-0.6c0.5-0.1,1.1-0.2,1.6-0.2
			c0.7,0,1.3,0.1,1.9,0.2c0.6,0.1,1.1,0.3,1.5,0.6C30.4,8.6,30.7,9,31,9.5c0.3,0.5,0.4,1.1,0.5,1.9l0,0.1h-2.1l0,0
			c0-0.4-0.1-0.7-0.3-0.9c-0.2-0.2-0.4-0.5-0.6-0.6c-0.3-0.2-0.6-0.3-0.9-0.3c-0.6-0.1-1.2-0.1-1.9,0c-0.3,0-0.6,0.1-0.8,0.2
			c-0.2,0.1-0.4,0.3-0.6,0.5c-0.1,0.2-0.2,0.4-0.2,0.7c0,0.3,0.1,0.6,0.3,0.8c0.2,0.2,0.5,0.4,0.9,0.6c0.4,0.1,0.8,0.3,1.3,0.4
			c0.5,0.1,0.9,0.2,1.4,0.3c0.5,0.1,1,0.2,1.5,0.4c0.5,0.2,0.9,0.4,1.3,0.6c0.4,0.3,0.7,0.6,0.9,1c0.2,0.4,0.3,0.9,0.3,1.5
			c0,0.7-0.2,1.4-0.5,1.8c-0.3,0.5-0.7,0.9-1.2,1.2c-0.5,0.3-1.1,0.5-1.7,0.6C28,20.2,27.4,20.3,26.8,20.3z M21.8,16.2
			c0,0.7,0.2,1.3,0.5,1.8c0.3,0.5,0.6,0.9,1.1,1.2c0.5,0.3,1,0.5,1.6,0.7c1.1,0.3,2.4,0.3,3.7,0c0.6-0.1,1.2-0.3,1.6-0.6
			c0.5-0.3,0.9-0.7,1.2-1.2c0.3-0.5,0.4-1.1,0.4-1.8c0-0.6-0.1-1-0.3-1.4c-0.2-0.4-0.5-0.7-0.9-1c-0.4-0.3-0.8-0.5-1.2-0.6
			c-0.5-0.2-1-0.3-1.5-0.4c-0.5-0.1-0.9-0.2-1.4-0.3c-0.5-0.1-0.9-0.2-1.3-0.4c-0.4-0.2-0.7-0.3-0.9-0.6c-0.3-0.2-0.4-0.5-0.4-0.9
			c0-0.3,0.1-0.6,0.2-0.8c0.2-0.2,0.4-0.4,0.6-0.5c0.3-0.1,0.5-0.2,0.8-0.2c0.6-0.1,1.3-0.1,1.9,0c0.3,0.1,0.6,0.2,0.9,0.3
			c0.3,0.2,0.5,0.4,0.7,0.6c0.2,0.3,0.3,0.6,0.3,0.9h1.9c0-0.7-0.2-1.3-0.5-1.8c-0.3-0.5-0.6-0.9-1-1.2s-0.9-0.5-1.5-0.6
			c-0.6-0.1-1.2-0.2-1.9-0.2c-0.5,0-1.1,0.1-1.6,0.2c-0.5,0.1-1,0.3-1.4,0.6c-0.4,0.3-0.8,0.6-1,1C22.1,9.9,22,10.4,22,11
			c0,0.8,0.2,1.4,0.6,1.8c0.4,0.4,0.9,0.8,1.4,1c0.6,0.2,1.2,0.4,1.9,0.6c0.7,0.1,1.3,0.3,1.9,0.4c0.6,0.2,1.1,0.4,1.5,0.6
			c0.4,0.3,0.6,0.7,0.6,1.2c0,0.4-0.1,0.7-0.3,1c-0.2,0.2-0.4,0.4-0.7,0.6c-0.3,0.1-0.6,0.2-1,0.3c-0.3,0-0.7,0.1-1,0.1
			c-0.4,0-0.8,0-1.2-0.1c-0.4-0.1-0.7-0.2-1-0.4c-0.3-0.2-0.6-0.4-0.8-0.7c-0.2-0.3-0.3-0.7-0.3-1.1H21.8z"/>
	</g>
	<g>
		<path fill="#FFFFFF" d="M36.3,3.3V20h-2V3.3H36.3z"/>
		<path fill="#FFFFFF" d="M36.4,20h-2.1V3.2h2.1V20z M34.4,19.9h1.9V3.3h-1.9V19.9z"/>
	</g>
	<g>
		<path fill="#FFFFFF" d="M39.6,5.7V3.3h2v2.4H39.6z M41.6,7.9V20h-2V7.9H41.6z"/>
		<path fill="#FFFFFF" d="M41.6,20h-2.1V7.8h2.1V20z M39.7,19.9h1.9v-12h-1.9V19.9z M41.6,5.8h-2.1V3.2h2.1V5.8z M39.7,5.7h1.9V3.3
			h-1.9V5.7z"/>
	</g>
	<g>
		<path fill="#FFFFFF" d="M53.6,20v-1.6h0c-0.3,0.7-0.8,1.2-1.5,1.4c-0.7,0.3-1.5,0.4-2.3,0.4c-0.9,0-1.7-0.2-2.4-0.5
			c-0.7-0.3-1.3-0.8-1.7-1.4c-0.5-0.6-0.8-1.2-1-2s-0.4-1.6-0.4-2.4c0-0.9,0.1-1.7,0.3-2.4c0.2-0.8,0.6-1.4,1-2c0.5-0.6,1-1,1.7-1.4
			c0.7-0.3,1.5-0.5,2.4-0.5c0.3,0,0.6,0,1,0.1C51,7.8,51.3,7.9,51.7,8c0.4,0.1,0.7,0.3,1,0.6c0.3,0.2,0.6,0.5,0.8,0.9h0V3.3h2V20
			H53.6z M46.4,15.7c0.1,0.5,0.4,1,0.7,1.4c0.3,0.4,0.7,0.8,1.2,1c0.5,0.2,1,0.4,1.7,0.4c0.7,0,1.2-0.1,1.7-0.4
			c0.5-0.3,0.8-0.6,1.1-1c0.3-0.4,0.5-0.9,0.6-1.5c0.1-0.5,0.2-1.1,0.2-1.7c0-0.6-0.1-1.2-0.2-1.7s-0.4-1-0.7-1.5s-0.7-0.8-1.2-1
			s-1.1-0.4-1.8-0.4c-0.7,0-1.2,0.1-1.7,0.4c-0.5,0.3-0.8,0.6-1.1,1.1c-0.3,0.4-0.5,0.9-0.6,1.5c-0.1,0.6-0.2,1.1-0.2,1.7
			C46.2,14.6,46.3,15.1,46.4,15.7z"/>
		<path fill="#FFFFFF" d="M49.7,20.3c-0.9,0-1.8-0.2-2.5-0.5c-0.7-0.3-1.3-0.8-1.7-1.4c-0.5-0.6-0.8-1.3-1-2
			c-0.2-0.8-0.4-1.6-0.4-2.4s0.1-1.7,0.3-2.4c0.2-0.8,0.6-1.4,1-2c0.5-0.6,1.1-1,1.7-1.4c0.7-0.3,1.5-0.5,2.4-0.5c0.3,0,0.6,0,1,0.1
			C51,7.7,51.3,7.8,51.7,8c0.4,0.1,0.7,0.3,1,0.6c0.3,0.2,0.6,0.5,0.8,0.8V3.2h2.1V20h-2.1v-1.6c-0.3,0.6-0.8,1.1-1.5,1.4
			C51.3,20.1,50.5,20.3,49.7,20.3z M49.6,7.7c-0.9,0-1.7,0.2-2.4,0.5c-0.7,0.3-1.3,0.8-1.7,1.3c-0.5,0.6-0.8,1.2-1,2
			c-0.2,0.8-0.3,1.6-0.3,2.4s0.1,1.7,0.3,2.4s0.6,1.4,1,2c0.5,0.6,1,1,1.7,1.4c0.7,0.3,1.5,0.5,2.4,0.5c0.8,0,1.6-0.1,2.3-0.4
			c0.7-0.3,1.2-0.8,1.5-1.4l0,0h0.1v1.6h1.9V3.3h-1.9v6.2h-0.1l0,0c-0.2-0.4-0.5-0.6-0.8-0.9c-0.3-0.2-0.7-0.4-1-0.6
			c-0.4-0.1-0.7-0.3-1.1-0.3C50.2,7.7,49.9,7.7,49.6,7.7z M49.9,18.5c-0.6,0-1.2-0.1-1.7-0.4c-0.5-0.3-0.9-0.6-1.2-1
			c-0.3-0.4-0.5-0.9-0.7-1.5c-0.1-0.5-0.2-1.1-0.2-1.7c0-0.6,0.1-1.2,0.2-1.7c0.1-0.6,0.3-1.1,0.6-1.5c0.3-0.4,0.7-0.8,1.1-1.1
			c0.5-0.3,1.1-0.4,1.7-0.4c0.7,0,1.3,0.1,1.8,0.4c0.5,0.3,0.9,0.6,1.2,1c0.3,0.4,0.5,0.9,0.7,1.5c0.1,0.6,0.2,1.1,0.2,1.7
			c0,0.6-0.1,1.1-0.2,1.7c-0.1,0.5-0.4,1-0.7,1.5c-0.3,0.4-0.7,0.8-1.2,1.1C51.2,18.4,50.6,18.5,49.9,18.5z M49.8,9.4
			c-0.7,0-1.2,0.1-1.7,0.4c-0.5,0.3-0.8,0.6-1.1,1c-0.3,0.4-0.5,0.9-0.6,1.5c-0.1,0.6-0.2,1.1-0.2,1.7c0,0.6,0.1,1.1,0.2,1.6
			c0.1,0.5,0.4,1,0.7,1.4c0.3,0.4,0.7,0.7,1.2,1c0.5,0.2,1,0.4,1.6,0.4c0.7,0,1.2-0.1,1.7-0.4c0.5-0.3,0.8-0.6,1.1-1
			c0.3-0.4,0.5-0.9,0.6-1.4c0.1-0.5,0.2-1.1,0.2-1.6c0-0.6-0.1-1.2-0.2-1.7c-0.1-0.5-0.4-1-0.7-1.4c-0.3-0.4-0.7-0.8-1.2-1
			S50.5,9.4,49.8,9.4z"/>
	</g>
	<g>
		<path fill="#FFFFFF" d="M67.2,19.2c-0.9,0.7-2,1-3.4,1c-1,0-1.8-0.2-2.5-0.5c-0.7-0.3-1.3-0.7-1.8-1.3c-0.5-0.6-0.8-1.2-1.1-2
			c-0.2-0.8-0.4-1.6-0.4-2.5c0-0.9,0.1-1.8,0.4-2.5c0.3-0.8,0.7-1.4,1.2-2c0.5-0.6,1.1-1,1.8-1.3c0.7-0.3,1.5-0.5,2.3-0.5
			c1.1,0,2,0.2,2.7,0.7c0.7,0.4,1.3,1,1.7,1.7c0.4,0.7,0.7,1.4,0.9,2.2c0.2,0.8,0.2,1.6,0.2,2.3h-9c0,0.5,0,1,0.2,1.5
			c0.1,0.5,0.4,0.9,0.7,1.3c0.3,0.4,0.7,0.7,1.2,0.9c0.5,0.2,1.1,0.3,1.7,0.3c0.8,0,1.5-0.2,2.1-0.6s0.9-1,1.1-1.8h2
			C68.7,17.5,68.1,18.5,67.2,19.2z M66.7,11.4c-0.2-0.4-0.4-0.8-0.7-1.1s-0.7-0.5-1.1-0.7c-0.4-0.2-0.9-0.3-1.4-0.3
			c-0.5,0-1,0.1-1.4,0.3c-0.4,0.2-0.8,0.4-1.1,0.7c-0.3,0.3-0.5,0.7-0.7,1.1c-0.2,0.4-0.3,0.9-0.3,1.3h6.9
			C67,12.3,66.9,11.9,66.7,11.4z"/>
		<path fill="#FFFFFF" d="M63.8,20.3c-1,0-1.8-0.2-2.5-0.5c-0.7-0.3-1.3-0.8-1.8-1.3c-0.5-0.6-0.9-1.2-1.1-2
			c-0.2-0.8-0.4-1.6-0.4-2.6c0-0.9,0.1-1.8,0.4-2.5s0.7-1.4,1.2-2c0.5-0.6,1.1-1,1.8-1.3c0.7-0.3,1.5-0.5,2.3-0.5
			c1.1,0,2,0.2,2.7,0.7c0.7,0.4,1.3,1,1.7,1.7c0.4,0.7,0.7,1.4,0.9,2.3c0.2,0.8,0.2,1.6,0.2,2.3l0,0h-9c0,0.5,0.1,1,0.2,1.4
			c0.1,0.5,0.4,0.9,0.7,1.2c0.3,0.4,0.7,0.6,1.2,0.9c0.5,0.2,1,0.3,1.7,0.3c0.8,0,1.5-0.2,2-0.6c0.5-0.4,0.9-1,1-1.7l0,0H69l0,0.1
			c-0.3,1.4-0.9,2.4-1.8,3.1C66.3,19.9,65.2,20.3,63.8,20.3z M63.7,7.7c-0.8,0-1.6,0.2-2.3,0.5c-0.7,0.3-1.3,0.7-1.8,1.3
			c-0.5,0.6-0.9,1.2-1.2,2c-0.3,0.8-0.4,1.6-0.4,2.5c0,0.9,0.2,1.8,0.4,2.5c0.2,0.8,0.6,1.4,1.1,2c0.5,0.6,1.1,1,1.8,1.3
			c0.7,0.3,1.5,0.5,2.5,0.5c1.4,0,2.5-0.3,3.4-1c0.9-0.7,1.5-1.7,1.7-3h-1.9c-0.2,0.8-0.5,1.4-1.1,1.8c-0.5,0.4-1.2,0.6-2.1,0.6
			c-0.7,0-1.2-0.1-1.7-0.3c-0.5-0.2-0.9-0.5-1.2-0.9c-0.3-0.4-0.5-0.8-0.7-1.3c-0.1-0.5-0.2-1-0.2-1.5l0,0h9c0-0.7,0-1.5-0.2-2.3
			c-0.2-0.8-0.5-1.5-0.9-2.2c-0.4-0.7-1-1.2-1.7-1.7C65.6,7.9,64.8,7.7,63.7,7.7z M67.1,12.8h-7l0-0.1c0-0.5,0.1-0.9,0.3-1.3
			c0.2-0.4,0.4-0.8,0.7-1.1c0.3-0.3,0.7-0.6,1.1-0.7c0.4-0.2,0.9-0.3,1.4-0.3c0.5,0,1,0.1,1.4,0.3c0.4,0.2,0.8,0.4,1.1,0.7
			c0.3,0.3,0.6,0.7,0.7,1.1C67,11.8,67.1,12.3,67.1,12.8L67.1,12.8z M60.2,12.7H67c0-0.4-0.1-0.9-0.3-1.3c-0.2-0.4-0.4-0.8-0.7-1.1
			c-0.3-0.3-0.7-0.5-1.1-0.7c-0.4-0.2-0.9-0.3-1.3-0.3c-0.5,0-1,0.1-1.4,0.3c-0.4,0.2-0.8,0.4-1,0.7c-0.3,0.3-0.5,0.7-0.7,1.1
			C60.3,11.9,60.2,12.3,60.2,12.7z"/>
	</g>
	<g>
		<path fill="#FFFFFF" d="M83,7.9v1.8h-2.4v7.5c0,0.2,0,0.4,0.1,0.6c0,0.1,0.1,0.2,0.2,0.3s0.3,0.1,0.5,0.2c0.2,0,0.4,0,0.8,0H83V20
			h-1.5c-0.5,0-1,0-1.3-0.1c-0.4-0.1-0.7-0.2-0.9-0.4c-0.2-0.2-0.4-0.5-0.5-0.8c-0.1-0.3-0.2-0.8-0.2-1.4V9.6h-2.1V7.9h2.1V4.3h2
			v3.6H83z"/>
		<path fill="#FFFFFF" d="M83.1,20h-1.6c-0.5,0-1,0-1.3-0.1c-0.4-0.1-0.7-0.2-0.9-0.4c-0.2-0.2-0.4-0.5-0.5-0.8
			c-0.1-0.3-0.2-0.8-0.2-1.4V9.7h-2.1V7.8h2.1V4.2h2.1v3.6h2.4v1.9h-2.4v7.5c0,0.2,0,0.4,0.1,0.5c0,0.1,0.1,0.2,0.2,0.3
			c0.1,0.1,0.2,0.1,0.4,0.1c0.2,0,0.4,0,0.8,0h1V20z M76.6,9.6h2.1v7.7c0,0.6,0.1,1,0.2,1.3c0.1,0.3,0.3,0.6,0.5,0.8
			c0.2,0.2,0.5,0.3,0.9,0.4c0.4,0.1,0.8,0.1,1.3,0.1H83v-1.7h-0.9c-0.3,0-0.6,0-0.8,0c-0.2,0-0.4-0.1-0.5-0.2
			c-0.1-0.1-0.2-0.2-0.2-0.4c0-0.1-0.1-0.3-0.1-0.6V9.6H83V7.9h-2.4V4.3h-1.9v3.6h-2.1V9.6z"/>
	</g>
	<g>
		<path fill="#FFFFFF" d="M85,11.4c0.2-0.8,0.6-1.4,1.1-2c0.5-0.6,1.1-1,1.8-1.3s1.6-0.5,2.5-0.5c1,0,1.8,0.2,2.5,0.5
			c0.7,0.3,1.3,0.8,1.8,1.3c0.5,0.6,0.9,1.2,1.1,2c0.2,0.8,0.4,1.6,0.4,2.5c0,0.9-0.1,1.7-0.4,2.5c-0.2,0.8-0.6,1.4-1.1,2
			c-0.5,0.6-1.1,1-1.8,1.3c-0.7,0.3-1.6,0.5-2.5,0.5c-1,0-1.8-0.2-2.5-0.5c-0.7-0.3-1.3-0.8-1.8-1.3c-0.5-0.6-0.9-1.2-1.1-2
			c-0.2-0.8-0.4-1.6-0.4-2.5C84.6,13,84.8,12.2,85,11.4z M87,15.9c0.2,0.6,0.5,1,0.8,1.4s0.7,0.7,1.2,0.9c0.5,0.2,0.9,0.3,1.5,0.3
			s1-0.1,1.5-0.3c0.5-0.2,0.9-0.5,1.2-0.9c0.3-0.4,0.6-0.9,0.8-1.4c0.2-0.6,0.3-1.2,0.3-2s-0.1-1.4-0.3-2c-0.2-0.6-0.5-1-0.8-1.4
			c-0.3-0.4-0.7-0.7-1.2-0.9c-0.5-0.2-0.9-0.3-1.5-0.3s-1,0.1-1.5,0.3c-0.5,0.2-0.9,0.5-1.2,0.9S87.2,11.4,87,12
			c-0.2,0.6-0.3,1.2-0.3,2S86.8,15.3,87,15.9z"/>
		<path fill="#FFFFFF" d="M90.5,20.3c-1,0-1.8-0.2-2.5-0.5c-0.7-0.3-1.4-0.8-1.9-1.3c-0.5-0.6-0.9-1.3-1.1-2
			c-0.2-0.8-0.4-1.6-0.4-2.5s0.1-1.7,0.4-2.5c0.2-0.8,0.6-1.5,1.1-2c0.5-0.6,1.1-1,1.9-1.4c0.7-0.3,1.6-0.5,2.5-0.5
			c1,0,1.8,0.2,2.6,0.5c0.7,0.3,1.4,0.8,1.9,1.4c0.5,0.6,0.9,1.3,1.1,2c0.2,0.8,0.4,1.6,0.4,2.5c0,0.9-0.1,1.7-0.4,2.5
			s-0.6,1.4-1.1,2c-0.5,0.6-1.1,1-1.9,1.3C92.3,20.1,91.5,20.3,90.5,20.3z M90.5,7.7c-0.9,0-1.8,0.2-2.5,0.5
			c-0.7,0.3-1.3,0.8-1.8,1.3c-0.5,0.6-0.9,1.2-1.1,2c-0.2,0.8-0.4,1.6-0.4,2.5c0,0.9,0.1,1.7,0.4,2.5c0.2,0.8,0.6,1.4,1.1,2
			c0.5,0.6,1.1,1,1.8,1.3c0.7,0.3,1.6,0.5,2.5,0.5c1,0,1.8-0.2,2.5-0.5c0.7-0.3,1.3-0.8,1.8-1.3c0.5-0.6,0.9-1.2,1.1-2
			c0.2-0.8,0.4-1.6,0.4-2.5s-0.1-1.7-0.4-2.5c-0.2-0.8-0.6-1.4-1.1-2c-0.5-0.6-1.1-1-1.8-1.3C92.3,7.8,91.5,7.7,90.5,7.7z
			 M90.5,18.5c-0.5,0-1-0.1-1.5-0.3c-0.5-0.2-0.9-0.5-1.2-0.9c-0.3-0.4-0.6-0.9-0.8-1.4c-0.2-0.6-0.3-1.2-0.3-2s0.1-1.4,0.3-2
			c0.2-0.6,0.5-1.1,0.8-1.5s0.8-0.7,1.2-0.9c0.5-0.2,1-0.3,1.5-0.3s1,0.1,1.5,0.3c0.5,0.2,0.9,0.5,1.2,0.9c0.3,0.4,0.6,0.9,0.8,1.5
			s0.3,1.2,0.3,2s-0.1,1.4-0.3,2c-0.2,0.6-0.5,1.1-0.8,1.4c-0.3,0.4-0.8,0.7-1.2,0.9C91.5,18.4,91,18.5,90.5,18.5z M90.5,9.4
			c-0.5,0-1,0.1-1.4,0.3c-0.5,0.2-0.9,0.5-1.2,0.9c-0.3,0.4-0.6,0.9-0.8,1.4c-0.2,0.6-0.3,1.2-0.3,1.9s0.1,1.4,0.3,1.9
			c0.2,0.6,0.5,1,0.8,1.4c0.3,0.4,0.7,0.7,1.2,0.9c0.4,0.2,0.9,0.3,1.4,0.3c0.5,0,1-0.1,1.4-0.3c0.5-0.2,0.8-0.5,1.2-0.9
			c0.3-0.4,0.6-0.9,0.8-1.4c0.2-0.6,0.3-1.2,0.3-1.9s-0.1-1.4-0.3-1.9c-0.2-0.6-0.5-1-0.8-1.4c-0.3-0.4-0.7-0.7-1.2-0.9
			C91.5,9.5,91,9.4,90.5,9.4z"/>
	</g>
	<g>
		<path fill="#FFFFFF" d="M113.5,20V18h0c-0.4,0.7-1,1.3-1.6,1.6s-1.4,0.5-2.3,0.5c-0.8,0-1.5-0.1-2-0.3c-0.5-0.2-1-0.5-1.3-0.9
			s-0.6-0.9-0.7-1.4s-0.2-1.1-0.2-1.8V7.9h2v8.2c0,0.7,0.2,1.3,0.7,1.8c0.4,0.4,1,0.7,1.8,0.7c0.6,0,1.1-0.1,1.6-0.3
			c0.4-0.2,0.8-0.5,1.1-0.8s0.5-0.7,0.7-1.2c0.1-0.5,0.2-1,0.2-1.5V7.9h2V20H113.5z"/>
		<path fill="#FFFFFF" d="M109.5,20.3c-0.8,0-1.5-0.1-2-0.3c-0.5-0.2-1-0.5-1.3-0.9c-0.3-0.4-0.6-0.9-0.7-1.4
			c-0.1-0.5-0.2-1.1-0.2-1.8v-8h2.1v8.2c0,0.7,0.2,1.3,0.6,1.7c0.4,0.4,1,0.6,1.8,0.6c0.6,0,1.1-0.1,1.6-0.3
			c0.4-0.2,0.8-0.4,1.1-0.8c0.3-0.3,0.5-0.7,0.7-1.2c0.1-0.5,0.2-1,0.2-1.5V7.8h2.1V20h-2v-1.9c-0.4,0.7-1,1.2-1.6,1.6
			C111.2,20.1,110.4,20.3,109.5,20.3z M105.4,7.9v7.9c0,0.6,0.1,1.2,0.2,1.8c0.1,0.5,0.4,1,0.7,1.4c0.3,0.4,0.7,0.7,1.3,0.9
			c0.5,0.2,1.2,0.3,2,0.3c0.9,0,1.6-0.2,2.3-0.5c0.6-0.3,1.2-0.9,1.6-1.6l0,0h0.1v1.9h1.8v-12h-1.9v6.8c0,0.5-0.1,1.1-0.2,1.5
			c-0.1,0.5-0.4,0.9-0.7,1.2c-0.3,0.3-0.7,0.6-1.1,0.8c-0.4,0.2-1,0.3-1.6,0.3c-0.8,0-1.4-0.2-1.8-0.7c-0.4-0.4-0.7-1.1-0.7-1.8V7.9
			H105.4z"/>
	</g>
	<g>
		<path fill="#FFFFFF" d="M120.3,7.9v1.9h0c0.8-1.5,2.1-2.2,3.9-2.2c0.8,0,1.5,0.1,2,0.3c0.5,0.2,1,0.5,1.3,0.9s0.6,0.9,0.7,1.4
			c0.1,0.5,0.2,1.1,0.2,1.8V20h-2v-8.2c0-0.7-0.2-1.3-0.7-1.8c-0.4-0.4-1-0.7-1.8-0.7c-0.6,0-1.1,0.1-1.6,0.3
			c-0.4,0.2-0.8,0.5-1.1,0.8s-0.5,0.7-0.7,1.2c-0.1,0.5-0.2,1-0.2,1.5V20h-2V7.9H120.3z"/>
		<path fill="#FFFFFF" d="M128.5,20h-2.1v-8.2c0-0.7-0.2-1.3-0.6-1.7c-0.4-0.4-1-0.6-1.8-0.6c-0.6,0-1.1,0.1-1.6,0.3
			c-0.4,0.2-0.8,0.4-1.1,0.8c-0.3,0.3-0.5,0.7-0.7,1.2c-0.1,0.5-0.2,1-0.2,1.5V20h-2.1V7.8h2v1.9c0.8-1.4,2.2-2.1,3.9-2.1
			c0.8,0,1.5,0.1,2,0.3c0.5,0.2,1,0.5,1.3,0.9c0.3,0.4,0.6,0.9,0.7,1.4c0.1,0.5,0.2,1.1,0.2,1.8V20z M126.5,19.9h1.9V12
			c0-0.6-0.1-1.2-0.2-1.8c-0.1-0.5-0.4-1-0.7-1.4c-0.3-0.4-0.7-0.7-1.3-0.9c-0.5-0.2-1.2-0.3-2-0.3c-1.8,0-3.1,0.7-3.9,2.2l0,0h-0.1
			V7.9h-1.8v12h1.9v-6.8c0-0.5,0.1-1.1,0.2-1.5c0.1-0.5,0.4-0.9,0.7-1.2c0.3-0.3,0.7-0.6,1.1-0.8c0.4-0.2,1-0.3,1.6-0.3
			c0.8,0,1.4,0.2,1.8,0.7c0.4,0.4,0.7,1.1,0.7,1.8V19.9z"/>
	</g>
	<g>
		<path fill="#FFFFFF" d="M133.6,3.3V20h-2V3.3H133.6z"/>
		<path fill="#FFFFFF" d="M133.6,20h-2.1V3.2h2.1V20z M131.6,19.9h1.9V3.3h-1.9V19.9z"/>
	</g>
	<g>
		<path fill="#FFFFFF" d="M136.4,11.4c0.2-0.8,0.6-1.4,1.1-2c0.5-0.6,1.1-1,1.8-1.3s1.6-0.5,2.5-0.5c1,0,1.8,0.2,2.5,0.5
			c0.7,0.3,1.3,0.8,1.8,1.3c0.5,0.6,0.9,1.2,1.1,2c0.2,0.8,0.4,1.6,0.4,2.5c0,0.9-0.1,1.7-0.4,2.5c-0.2,0.8-0.6,1.4-1.1,2
			c-0.5,0.6-1.1,1-1.8,1.3c-0.7,0.3-1.6,0.5-2.5,0.5c-1,0-1.8-0.2-2.5-0.5c-0.7-0.3-1.3-0.8-1.8-1.3c-0.5-0.6-0.9-1.2-1.1-2
			c-0.2-0.8-0.4-1.6-0.4-2.5C136.1,13,136.2,12.2,136.4,11.4z M138.5,15.9c0.2,0.6,0.5,1,0.8,1.4s0.7,0.7,1.2,0.9
			c0.5,0.2,0.9,0.3,1.5,0.3s1-0.1,1.5-0.3c0.5-0.2,0.9-0.5,1.2-0.9c0.3-0.4,0.6-0.9,0.8-1.4c0.2-0.6,0.3-1.2,0.3-2s-0.1-1.4-0.3-2
			c-0.2-0.6-0.5-1-0.8-1.4c-0.3-0.4-0.7-0.7-1.2-0.9c-0.5-0.2-0.9-0.3-1.5-0.3s-1,0.1-1.5,0.3c-0.5,0.2-0.9,0.5-1.2,0.9
			s-0.6,0.9-0.8,1.4c-0.2,0.6-0.3,1.2-0.3,2S138.3,15.3,138.5,15.9z"/>
		<path fill="#FFFFFF" d="M141.9,20.3c-1,0-1.8-0.2-2.5-0.5c-0.7-0.3-1.4-0.8-1.9-1.3c-0.5-0.6-0.9-1.3-1.1-2
			c-0.2-0.8-0.4-1.6-0.4-2.5s0.1-1.7,0.4-2.5c0.2-0.8,0.6-1.5,1.1-2c0.5-0.6,1.1-1,1.9-1.4c0.7-0.3,1.6-0.5,2.5-0.5
			c1,0,1.8,0.2,2.6,0.5c0.7,0.3,1.4,0.8,1.9,1.4c0.5,0.6,0.9,1.3,1.1,2c0.2,0.8,0.4,1.6,0.4,2.5c0,0.9-0.1,1.7-0.4,2.5
			s-0.6,1.4-1.1,2c-0.5,0.6-1.1,1-1.9,1.3C143.8,20.1,142.9,20.3,141.9,20.3z M141.9,7.7c-0.9,0-1.8,0.2-2.5,0.5
			c-0.7,0.3-1.3,0.8-1.8,1.3c-0.5,0.6-0.9,1.2-1.1,2c-0.2,0.8-0.4,1.6-0.4,2.5c0,0.9,0.1,1.7,0.4,2.5c0.2,0.8,0.6,1.4,1.1,2
			c0.5,0.6,1.1,1,1.8,1.3c0.7,0.3,1.6,0.5,2.5,0.5c1,0,1.8-0.2,2.5-0.5c0.7-0.3,1.3-0.8,1.8-1.3c0.5-0.6,0.9-1.2,1.1-2
			c0.2-0.8,0.4-1.6,0.4-2.5s-0.1-1.7-0.4-2.5c-0.2-0.8-0.6-1.4-1.1-2c-0.5-0.6-1.1-1-1.8-1.3C143.7,7.8,142.9,7.7,141.9,7.7z
			 M141.9,18.5c-0.5,0-1-0.1-1.5-0.3c-0.5-0.2-0.9-0.5-1.2-0.9c-0.3-0.4-0.6-0.9-0.8-1.4c-0.2-0.6-0.3-1.2-0.3-2s0.1-1.4,0.3-2
			c0.2-0.6,0.5-1.1,0.8-1.5c0.3-0.4,0.8-0.7,1.2-0.9c0.5-0.2,1-0.3,1.5-0.3s1,0.1,1.5,0.3c0.5,0.2,0.9,0.5,1.2,0.9
			c0.3,0.4,0.6,0.9,0.8,1.5s0.3,1.2,0.3,2s-0.1,1.4-0.3,2c-0.2,0.6-0.5,1.1-0.8,1.4c-0.3,0.4-0.8,0.7-1.2,0.9
			C143,18.4,142.5,18.5,141.9,18.5z M141.9,9.4c-0.5,0-1,0.1-1.4,0.3c-0.5,0.2-0.9,0.5-1.2,0.9c-0.3,0.4-0.6,0.9-0.8,1.4
			c-0.2,0.6-0.3,1.2-0.3,1.9s0.1,1.4,0.3,1.9c0.2,0.6,0.5,1,0.8,1.4c0.3,0.4,0.7,0.7,1.2,0.9c0.4,0.2,0.9,0.3,1.4,0.3
			c0.5,0,1-0.1,1.4-0.3c0.5-0.2,0.8-0.5,1.2-0.9c0.3-0.4,0.6-0.9,0.8-1.4c0.2-0.6,0.3-1.2,0.3-1.9s-0.1-1.4-0.3-1.9
			c-0.2-0.6-0.5-1-0.8-1.4c-0.3-0.4-0.7-0.7-1.2-0.9C142.9,9.5,142.4,9.4,141.9,9.4z"/>
	</g>
	<g>
		<path fill="#FFFFFF" d="M157.4,10c-0.5-0.4-1.2-0.6-2-0.6c-0.7,0-1.3,0.1-1.8,0.4c-0.5,0.3-0.9,0.6-1.2,1.1
			c-0.3,0.4-0.5,0.9-0.6,1.5c-0.1,0.6-0.2,1.2-0.2,1.8c0,0.6,0.1,1.1,0.2,1.6c0.1,0.5,0.3,1,0.6,1.4c0.3,0.4,0.6,0.7,1.1,1
			c0.5,0.2,1,0.4,1.6,0.4c1,0,1.7-0.3,2.3-0.8c0.6-0.5,0.9-1.2,1-2.2h2c-0.2,1.5-0.8,2.6-1.7,3.5s-2.1,1.2-3.7,1.2
			c-0.9,0-1.7-0.1-2.4-0.4c-0.7-0.3-1.3-0.7-1.8-1.3c-0.5-0.5-0.8-1.2-1.1-2c-0.2-0.8-0.4-1.6-0.4-2.5c0-0.9,0.1-1.7,0.4-2.5
			s0.6-1.5,1.1-2.1c0.5-0.6,1.1-1,1.8-1.4c0.7-0.3,1.6-0.5,2.5-0.5c0.7,0,1.3,0.1,1.9,0.2c0.6,0.2,1.1,0.4,1.6,0.8
			c0.5,0.3,0.8,0.8,1.1,1.3c0.3,0.5,0.5,1.1,0.6,1.9h-2.1C158.3,11,157.9,10.4,157.4,10z"/>
		<path fill="#FFFFFF" d="M155.2,20.3c-0.9,0-1.7-0.2-2.5-0.4c-0.7-0.3-1.3-0.7-1.8-1.3c-0.5-0.5-0.8-1.2-1.1-2
			c-0.2-0.8-0.4-1.6-0.4-2.5c0-0.9,0.1-1.8,0.4-2.5c0.2-0.8,0.6-1.5,1.1-2.1c0.5-0.6,1.1-1.1,1.8-1.4c0.7-0.3,1.6-0.5,2.5-0.5
			c0.7,0,1.3,0.1,1.9,0.2c0.6,0.2,1.1,0.4,1.6,0.8c0.5,0.3,0.8,0.8,1.1,1.3c0.3,0.5,0.5,1.2,0.6,1.9l0,0.1h-2.2l0,0
			c-0.2-0.7-0.5-1.3-1-1.7c-0.5-0.4-1.2-0.6-2-0.6c-0.7,0-1.3,0.1-1.8,0.4c-0.5,0.3-0.9,0.6-1.1,1c-0.3,0.4-0.5,0.9-0.6,1.5
			c-0.1,0.6-0.2,1.2-0.2,1.8c0,0.6,0.1,1.1,0.2,1.6c0.1,0.5,0.3,1,0.6,1.4c0.3,0.4,0.6,0.7,1.1,1c0.4,0.2,1,0.4,1.6,0.4
			c1,0,1.7-0.3,2.3-0.8c0.5-0.5,0.9-1.2,1-2.1l0,0h2.1l0,0.1c-0.2,1.5-0.8,2.7-1.7,3.5C158,19.9,156.8,20.3,155.2,20.3z M155.3,7.7
			c-0.9,0-1.8,0.2-2.5,0.5c-0.7,0.3-1.3,0.8-1.8,1.4c-0.5,0.6-0.8,1.3-1.1,2c-0.2,0.8-0.3,1.6-0.3,2.5s0.1,1.7,0.4,2.5
			c0.2,0.7,0.6,1.4,1.1,1.9c0.5,0.5,1.1,1,1.8,1.2c0.7,0.3,1.5,0.4,2.4,0.4c1.5,0,2.7-0.4,3.6-1.2c0.9-0.8,1.4-1.9,1.6-3.4h-1.9
			c-0.1,0.9-0.5,1.6-1,2.2c-0.6,0.5-1.3,0.8-2.3,0.8c-0.6,0-1.2-0.1-1.6-0.4s-0.8-0.6-1.1-1c-0.3-0.4-0.5-0.9-0.6-1.4
			c-0.1-0.5-0.2-1.1-0.2-1.6c0-0.6,0.1-1.2,0.2-1.8c0.1-0.6,0.3-1.1,0.6-1.5c0.3-0.4,0.7-0.8,1.2-1.1c0.5-0.3,1.1-0.4,1.8-0.4
			c0.8,0,1.5,0.2,2,0.6c0.5,0.4,0.8,1,1,1.8h2c-0.1-0.7-0.3-1.3-0.5-1.8c-0.3-0.5-0.7-0.9-1.1-1.3c-0.5-0.3-1-0.6-1.6-0.8
			C156.6,7.7,155.9,7.7,155.3,7.7z"/>
	</g>
	<g>
		<path fill="#FFFFFF" d="M164.9,3.3v9.9l5.5-5.3h2.7l-4.8,4.4l5.1,7.7h-2.5l-4.1-6.3l-1.9,1.7V20h-2V3.3H164.9z"/>
		<path fill="#FFFFFF" d="M173.6,20h-2.6l0,0l-4.1-6.3l-1.8,1.7V20h-2.1V3.2h2.1V13l5.4-5.2h2.8l-4.9,4.5L173.6,20z M171,19.9h2.4
			l-5.1-7.6l0,0l4.7-4.3h-2.5l-5.6,5.3v-10H163v16.6h1.9v-4.6l0,0l1.9-1.8l0,0L171,19.9z"/>
	</g>
</g>
</svg>
